<?xml version="1.0" encoding="utf-8" standalone="yes"?>
<!DOCTYPE svg PUBLIC "-//W3C//DTD SVG 1.1//EN" "http://www.w3.org/Graphics/SVG/1.1/DTD/svg11.dtd">
<svg style="fill:none;stroke:none;fill-rule:evenodd;clip-rule:evenodd;stroke-linecap:round;stroke-linejoin:round;stroke-miterlimit:1.5;" version="1.1" xmlns="http://www.w3.org/2000/svg" xmlns:xlink="http://www.w3.org/1999/xlink" width="806" height="1032" viewBox="0 0 806 1032"><style class="text-font-style fontImports" data-font-family="Shantell Sans">@import url(https://fonts.googleapis.com/css2?family=Shantell+Sans:wght@300..800&amp;amp;display=block);</style><rect id="" x="0" y="0" width="806" height="1032" style="fill: #2c2c2c;"></rect><g id="items" style="isolation: isolate"><g id="blend" style="mix-blend-mode: normal"><g id="g-root-tf_18gc0i9yrin0t-fill" data-item-order="-1240734" transform="translate(1, 0)"><g id="tf_18gc0i9yrin0t-fill-merged" stroke="none" fill="#2c2c2c" fill-opacity="1"><g><path d="M0 0 H801.51 V1032 H0 V0"></path></g></g></g><g id="g-root-tf_18gc0i9yrin0t-stroke" data-item-order="-1240734" transform="translate(1, 0)"></g><g id="g-root-cp_1_common_1-1_1uux85tyrlf60-fill" data-item-order="-771820" transform="translate(15, 224)"><g id="cp_1_common_1-1_1uux85tyrlf60-fill-merged" stroke="none" fill="#6b6b6b" fill-opacity="1"><g><path d="M 22 10L 14 10C 11.7909 10 10 11.7909 10 14L 22 14L 22 10ZM 94 14L 358 14C 358 11.7909 356.2092 10 354 10L 94 10L 94 14ZM 22 13.998089L 22 14.003547L 10 13.998089L 10 141.998093L 22 141.998093L 22 13.998089ZM 94 141.998093L 358 141.998093L 358 13.998089L 94 13.998089L 94 141.998093ZM 21.9998 142L 10 142L 10 150C 10 152.2091 11.7907 154 13.9998 154L 21.9998 154L 21.9998 142ZM 93.9998 154L 345.9998 154L 357.9998 142C 357.9998 142 348.209 142 345.9998 142L 93.9998 142L 93.9998 154ZM 345.9998 154L 345.9998 142L 357.9998 142L 345.9998 154ZM 345.9998 154L 357.9998 142L 345.9998 142L 345.9998 154Z"></path></g></g></g><g id="g-root-cp_1_common_1-1_1uux85tyrlf60-stroke" data-item-order="-771820" transform="translate(15, 224)"><g id="cp_1_common_1-1_1uux85tyrlf60-stroke" fill="none" stroke-linecap="round" stroke-linejoin="round" stroke-miterlimit="4" stroke="#2c2c2c" stroke-width="2" stroke-opacity="1"><g><path d="M 22 10L 14 10C 11.7909 10 10 11.7909 10 14M 358 14C 358 11.7909 356.2091 10 354 10L 94 10M 358 14L 358 142M 10 142L 10 14M 346 154L 358 142L 346 142L 346 154ZM 21 154L 14 154C 11.7909 154 10 152.2091 10 150L 10 142M 346 154L 94 154"></path></g></g></g><g id="g-root-cp_1_g-1_lines_1-1_1qf3q1dyrlfy9-fill" data-item-order="-771806" transform="translate(27, 212)"><g id="cp_1_g-1_lines_1-1_1qf3q1dyrlfy9-fill-merged" stroke="none" fill="#346778" fill-opacity="1"><g><path d="M82 174C82 176.209 80.209 178 78 178 H14C11.791 178 10 176.209 10 174 V20C10 14.477 14.477 10 20 10 H96C101.523 10 106 14.477 106 20 V21 H82 V174"></path></g></g></g><g id="g-root-cp_1_g-1_lines_1-1_1qf3q1dyrlfy9-stroke" data-item-order="-771806" transform="translate(27, 212)"><g id="cp_1_g-1_lines_1-1_1qf3q1dyrlfy9-stroke" fill="none" stroke-linecap="round" stroke-linejoin="round" stroke-miterlimit="4" stroke="#2c2c2c" stroke-width="2" stroke-opacity="1"><g><path d="M 92 10L 20 10C 14.4772 10 10 14.4772 10 20L 10 22M 92 10C 86.4772 10 82 14.4772 82 20L 82 22M 92 10L 96 10C 101.5229 10 106 14.4772 106 20L 106 21M 82 174.007675L 82 22.007691M 10 22.007855L 10 174.007675M 82 174C 82 176.2091 80.2091 178 78 178L 14 178C 11.7909 178 10 176.2091 10 174"></path></g></g></g><g id="g-root-cp_2_common_1-2_1d3n7o1yrlhj6-fill" data-item-order="-771780" transform="translate(15, 416)"><g id="cp_2_common_1-2_1d3n7o1yrlhj6-fill-merged" stroke="none" fill="#6b6b6b" fill-opacity="1"><g><path d="M 22 10L 14 10C 11.7909 10 10 11.7909 10 14L 22 14L 22 10ZM 94 14L 358 14C 358 11.7909 356.2092 10 354 10L 94 10L 94 14ZM 22 13.998101L 22 14.004327L 10 13.998101L 10 159.998093L 22 159.998093L 22 13.998101ZM 94 159.998093L 358 159.998093L 358 13.998101L 94 13.998101L 94 159.998093ZM 21.9998 160L 10 160L 10 168C 10 170.2091 11.7907 172 13.9998 172L 21.9998 172L 21.9998 160ZM 93.9998 172L 345.9998 172L 357.9998 160C 357.9998 160 348.209 160 345.9998 160L 93.9998 160L 93.9998 172ZM 345.9998 172L 345.9998 160L 357.9998 160L 345.9998 172ZM 345.9998 172L 357.9998 160L 345.9998 160L 345.9998 172Z"></path></g></g></g><g id="g-root-cp_2_common_1-2_1d3n7o1yrlhj6-stroke" data-item-order="-771780" transform="translate(15, 416)"><g id="cp_2_common_1-2_1d3n7o1yrlhj6-stroke" fill="none" stroke-linecap="round" stroke-linejoin="round" stroke-miterlimit="4" stroke="#2c2c2c" stroke-width="2" stroke-opacity="1"><g><path d="M 22 10L 14 10C 11.7909 10 10 11.7909 10 14M 358 14C 358 11.7909 356.2091 10 354 10L 94 10M 358 14L 358 160M 10 160L 10 14M 346 172L 358 160L 346 160L 346 172ZM 21 172L 14 172C 11.7909 172 10 170.2091 10 168L 10 160M 346 172L 94 172"></path></g></g></g><g id="g-root-cp_1_g-1_lines_1-2_zitl01yrmuir-fill" data-item-order="-771766" transform="translate(27, 404)"><g id="cp_1_g-1_lines_1-2_zitl01yrmuir-fill-merged" stroke="none" fill="#346778" fill-opacity="1"><g><path d="M82 192C82 194.209 80.209 196 78 196 H14C11.791 196 10 194.209 10 192 V20C10 14.477 14.477 10 20 10 H96C101.523 10 106 14.477 106 20 V21 H82 V192"></path></g></g></g><g id="g-root-cp_1_g-1_lines_1-2_zitl01yrmuir-stroke" data-item-order="-771766" transform="translate(27, 404)"><g id="cp_1_g-1_lines_1-2_zitl01yrmuir-stroke" fill="none" stroke-linecap="round" stroke-linejoin="round" stroke-miterlimit="4" stroke="#2c2c2c" stroke-width="2" stroke-opacity="1"><g><path d="M 92 10L 20 10C 14.4772 10 10 14.4772 10 20L 10 22M 92 10C 86.4772 10 82 14.4772 82 20L 82 22M 92 10L 96 10C 101.5229 10 106 14.4772 106 20L 106 21M 82 192.007645L 82 22.007655M 10 22.007838L 10 192.007645M 82 192C 82 194.2091 80.2091 196 78 196L 14 196C 11.7909 196 10 194.2091 10 192"></path></g></g></g><g id="g-root-cp_3_common_1-3_m7d2mpyrmw3o-fill" data-item-order="-771740" transform="translate(15, 626)"><g id="cp_3_common_1-3_m7d2mpyrmw3o-fill-merged" stroke="none" fill="#6b6b6b" fill-opacity="1"><g><path d="M 22 10L 14 10C 11.7909 10 10 11.7909 10 14L 22 14L 22 10ZM 94 14L 358 14C 358 11.7909 356.2092 10 354 10L 94 10L 94 14ZM 22 13.998089L 22 14.003547L 10 13.998089L 10 141.998093L 22 141.998093L 22 13.998089ZM 94 141.998093L 358 141.998093L 358 13.998089L 94 13.998089L 94 141.998093ZM 21.9998 142L 10 142L 10 150C 10 152.2091 11.7907 154 13.9998 154L 21.9998 154L 21.9998 142ZM 93.9998 154L 345.9998 154L 357.9998 142C 357.9998 142 348.209 142 345.9998 142L 93.9998 142L 93.9998 154ZM 345.9998 154L 345.9998 142L 357.9998 142L 345.9998 154ZM 345.9998 154L 357.9998 142L 345.9998 142L 345.9998 154Z"></path></g></g></g><g id="g-root-cp_3_common_1-3_m7d2mpyrmw3o-stroke" data-item-order="-771740" transform="translate(15, 626)"><g id="cp_3_common_1-3_m7d2mpyrmw3o-stroke" fill="none" stroke-linecap="round" stroke-linejoin="round" stroke-miterlimit="4" stroke="#2c2c2c" stroke-width="2" stroke-opacity="1"><g><path d="M 22 10L 14 10C 11.7909 10 10 11.7909 10 14M 358 14C 358 11.7909 356.2091 10 354 10L 94 10M 358 14L 358 142M 10 142L 10 14M 346 154L 358 142L 346 142L 346 154ZM 21 154L 14 154C 11.7909 154 10 152.2091 10 150L 10 142M 346 154L 94 154"></path></g></g></g><g id="g-root-cp_1_g-1_lines_1-3_8wj1chyrmuit-fill" data-item-order="-771726" transform="translate(27, 614)"><g id="cp_1_g-1_lines_1-3_8wj1chyrmuit-fill-merged" stroke="none" fill="#346778" fill-opacity="1"><g><path d="M82 174C82 176.209 80.209 178 78 178 H14C11.791 178 10 176.209 10 174 V20C10 14.477 14.477 10 20 10 H96C101.523 10 106 14.477 106 20 V21 H82 V174"></path></g></g></g><g id="g-root-cp_1_g-1_lines_1-3_8wj1chyrmuit-stroke" data-item-order="-771726" transform="translate(27, 614)"><g id="cp_1_g-1_lines_1-3_8wj1chyrmuit-stroke" fill="none" stroke-linecap="round" stroke-linejoin="round" stroke-miterlimit="4" stroke="#2c2c2c" stroke-width="2" stroke-opacity="1"><g><path d="M 92 10L 20 10C 14.4772 10 10 14.4772 10 20L 10 22M 92 10C 86.4772 10 82 14.4772 82 20L 82 22M 92 10L 96 10C 101.5229 10 106 14.4772 106 20L 106 21M 82 174.007675L 82 22.007691M 10 22.007855L 10 174.007675M 82 174C 82 176.2091 80.2091 178 78 178L 14 178C 11.7909 178 10 176.2091 10 174"></path></g></g></g><g id="g-root-cp_4_common_1-4_w13lyrmvbi-fill" data-item-order="-771700" transform="translate(15, 818)"><g id="cp_4_common_1-4_w13lyrmvbi-fill-merged" stroke="none" fill="#6b6b6b" fill-opacity="1"><g><path d="M 22 10L 14 10C 11.7909 10 10 11.7909 10 14L 22 14L 22 10ZM 94 14L 358 14C 358 11.7909 356.2092 10 354 10L 94 10L 94 14ZM 22 13.998072L 22 14.002507L 10 13.998072L 10 117.998077L 22 117.998077L 22 13.998072ZM 94 117.998077L 358 117.998077L 358 13.998072L 94 13.998072L 94 117.998077ZM 21.9998 118L 10 118L 10 126C 10 128.2091 11.7907 130 13.9998 130L 21.9998 130L 21.9998 118ZM 93.9998 130L 345.9998 130L 357.9998 118C 357.9998 118 348.209 118 345.9998 118L 93.9998 118L 93.9998 130ZM 345.9998 130L 345.9998 118L 357.9998 118L 345.9998 130ZM 345.9998 130L 357.9998 118L 345.9998 118L 345.9998 130Z"></path></g></g></g><g id="g-root-cp_4_common_1-4_w13lyrmvbi-stroke" data-item-order="-771700" transform="translate(15, 818)"><g id="cp_4_common_1-4_w13lyrmvbi-stroke" fill="none" stroke-linecap="round" stroke-linejoin="round" stroke-miterlimit="4" stroke="#2c2c2c" stroke-width="2" stroke-opacity="1"><g><path d="M 22 10L 14 10C 11.7909 10 10 11.7909 10 14M 358 14C 358 11.7909 356.2091 10 354 10L 94 10M 358 14L 358 118M 10 118L 10 14M 346 130L 358 118L 346 118L 346 130ZM 21 130L 14 130C 11.7909 130 10 128.2091 10 126L 10 118M 346 130L 94 130"></path></g></g></g><g id="g-root-cp_1_g-1_lines_1-4_1um6ky9yrmvwn-fill" data-item-order="-771686" transform="translate(27, 806)"><g id="cp_1_g-1_lines_1-4_1um6ky9yrmvwn-fill-merged" stroke="none" fill="#346778" fill-opacity="1"><g><path d="M82 150C82 152.209 80.209 154 78 154 H14C11.791 154 10 152.209 10 150 V20C10 14.477 14.477 10 20 10 H96C101.523 10 106 14.477 106 20 V21 H82 V150"></path></g></g></g><g id="g-root-cp_1_g-1_lines_1-4_1um6ky9yrmvwn-stroke" data-item-order="-771686" transform="translate(27, 806)"><g id="cp_1_g-1_lines_1-4_1um6ky9yrmvwn-stroke" fill="none" stroke-linecap="round" stroke-linejoin="round" stroke-miterlimit="4" stroke="#2c2c2c" stroke-width="2" stroke-opacity="1"><g><path d="M 92 10L 20 10C 14.4772 10 10 14.4772 10 20L 10 22M 92 10C 86.4772 10 82 14.4772 82 20L 82 22M 92 10L 96 10C 101.5229 10 106 14.4772 106 20L 106 21M 82 150.007736L 82 22.00774M 10 22.007878L 10 150.007736M 82 150C 82 152.2091 80.2091 154 78 154L 14 154C 11.7909 154 10 152.2091 10 150"></path></g></g></g><g id="g-root-cp_1_common_2-1_1hbcjo1yrmubs-fill" data-item-order="-771650" transform="translate(405, 224)"><g id="cp_1_common_2-1_1hbcjo1yrmubs-fill-merged" stroke="none" fill="#6b6b6b" fill-opacity="1"><g><path d="M 22 10L 14 10C 11.7909 10 10 11.7909 10 14L 22 14L 22 10ZM 94 14L 358 14C 358 11.7909 356.2092 10 354 10L 94 10L 94 14ZM 22 13.998085L 22 14.003288L 10 13.998085L 10 135.998085L 22 135.998085L 22 13.998085ZM 94 135.998085L 358 135.998085L 358 13.998085L 94 13.998085L 94 135.998085ZM 21.9998 136L 10 136L 10 144C 10 146.2091 11.7907 148 13.9998 148L 21.9998 148L 21.9998 136ZM 93.9998 148L 345.9998 148L 357.9998 136C 357.9998 136 348.209 136 345.9998 136L 93.9998 136L 93.9998 148ZM 345.9998 148L 345.9998 136L 357.9998 136L 345.9998 148ZM 345.9998 148L 357.9998 136L 345.9998 136L 345.9998 148Z"></path></g></g></g><g id="g-root-cp_1_common_2-1_1hbcjo1yrmubs-stroke" data-item-order="-771650" transform="translate(405, 224)"><g id="cp_1_common_2-1_1hbcjo1yrmubs-stroke" fill="none" stroke-linecap="round" stroke-linejoin="round" stroke-miterlimit="4" stroke="#2c2c2c" stroke-width="2" stroke-opacity="1"><g><path d="M 22 10L 14 10C 11.7909 10 10 11.7909 10 14M 358 14C 358 11.7909 356.2091 10 354 10L 94 10M 358 14L 358 136M 10 136L 10 14M 346 148L 358 136L 346 136L 346 148ZM 21 148L 14 148C 11.7909 148 10 146.2091 10 144L 10 136M 346 148L 94 148"></path></g></g></g><g id="g-root-cp_2_g-2_lines_2-1_1cvj1jlyrmv41-fill" data-item-order="-771636" transform="translate(417, 212)"><g id="cp_2_g-2_lines_2-1_1cvj1jlyrmv41-fill-merged" stroke="none" fill="#426397" fill-opacity="1"><g><path d="M82 168C82 170.209 80.209 172 78 172 H14C11.791 172 10 170.209 10 168 V20C10 14.477 14.477 10 20 10 H96C101.523 10 106 14.477 106 20 V21 H82 V168"></path></g></g></g><g id="g-root-cp_2_g-2_lines_2-1_1cvj1jlyrmv41-stroke" data-item-order="-771636" transform="translate(417, 212)"><g id="cp_2_g-2_lines_2-1_1cvj1jlyrmv41-stroke" fill="none" stroke-linecap="round" stroke-linejoin="round" stroke-miterlimit="4" stroke="#2c2c2c" stroke-width="2" stroke-opacity="1"><g><path d="M 92 10L 20 10C 14.4772 10 10 14.4772 10 20L 10 22M 92 10C 86.4772 10 82 14.4772 82 20L 82 22M 92 10L 96 10C 101.5229 10 106 14.4772 106 20L 106 21M 82 168.00769L 82 22.007703M 10 22.00786L 10 168.00769M 82 168C 82 170.2091 80.2091 172 78 172L 14 172C 11.7909 172 10 170.2091 10 168"></path></g></g></g><g id="g-root-cp_2_common_2-2_zkp09dyrmtj6-fill" data-item-order="-771610" transform="translate(405, 410)"><g id="cp_2_common_2-2_zkp09dyrmtj6-fill-merged" stroke="none" fill="#6b6b6b" fill-opacity="1"><g><path d="M 22 10L 14 10C 11.7909 10 10 11.7909 10 14L 22 14L 22 10ZM 94 14L 358 14C 358 11.7909 356.2092 10 354 10L 94 10L 94 14ZM 22 13.998101L 22 14.004327L 10 13.998101L 10 159.998093L 22 159.998093L 22 13.998101ZM 94 159.998093L 358 159.998093L 358 13.998101L 94 13.998101L 94 159.998093ZM 21.9998 160L 10 160L 10 168C 10 170.2091 11.7907 172 13.9998 172L 21.9998 172L 21.9998 160ZM 93.9998 172L 345.9998 172L 357.9998 160C 357.9998 160 348.209 160 345.9998 160L 93.9998 160L 93.9998 172ZM 345.9998 172L 345.9998 160L 357.9998 160L 345.9998 172ZM 345.9998 172L 357.9998 160L 345.9998 160L 345.9998 172Z"></path></g></g></g><g id="g-root-cp_2_common_2-2_zkp09dyrmtj6-stroke" data-item-order="-771610" transform="translate(405, 410)"><g id="cp_2_common_2-2_zkp09dyrmtj6-stroke" fill="none" stroke-linecap="round" stroke-linejoin="round" stroke-miterlimit="4" stroke="#2c2c2c" stroke-width="2" stroke-opacity="1"><g><path d="M 22 10L 14 10C 11.7909 10 10 11.7909 10 14M 358 14C 358 11.7909 356.2091 10 354 10L 94 10M 358 14L 358 160M 10 160L 10 14M 346 172L 358 160L 346 160L 346 172ZM 21 172L 14 172C 11.7909 172 10 170.2091 10 168L 10 160M 346 172L 94 172"></path></g></g></g><g id="g-root-cp_2_g-2_lines_2-2_qp200hyrmubv-fill" data-item-order="-771596" transform="translate(417, 398)"><g id="cp_2_g-2_lines_2-2_qp200hyrmubv-fill-merged" stroke="none" fill="#426397" fill-opacity="1"><g><path d="M82 192C82 194.209 80.209 196 78 196 H14C11.791 196 10 194.209 10 192 V20C10 14.477 14.477 10 20 10 H96C101.523 10 106 14.477 106 20 V21 H82 V192"></path></g></g></g><g id="g-root-cp_2_g-2_lines_2-2_qp200hyrmubv-stroke" data-item-order="-771596" transform="translate(417, 398)"><g id="cp_2_g-2_lines_2-2_qp200hyrmubv-stroke" fill="none" stroke-linecap="round" stroke-linejoin="round" stroke-miterlimit="4" stroke="#2c2c2c" stroke-width="2" stroke-opacity="1"><g><path d="M 92 10L 20 10C 14.4772 10 10 14.4772 10 20L 10 22M 92 10C 86.4772 10 82 14.4772 82 20L 82 22M 92 10L 96 10C 101.5229 10 106 14.4772 106 20L 106 21M 82 192.007645L 82 22.007655M 10 22.007838L 10 192.007645M 82 192C 82 194.2091 80.2091 196 78 196L 14 196C 11.7909 196 10 194.2091 10 192"></path></g></g></g><g id="g-root-cp_3_common_2-3_ddlhn5yrmvws-fill" data-item-order="-771570" transform="translate(405, 620)"><g id="cp_3_common_2-3_ddlhn5yrmvws-fill-merged" stroke="none" fill="#6b6b6b" fill-opacity="1"><g><path d="M 22 10L 14 10C 11.7909 10 10 11.7909 10 14L 22 14L 22 10ZM 94 14L 358 14C 358 11.7909 356.2092 10 354 10L 94 10L 94 14ZM 22 13.998085L 22 14.003288L 10 13.998085L 10 135.998085L 22 135.998085L 22 13.998085ZM 94 135.998085L 358 135.998085L 358 13.998085L 94 13.998085L 94 135.998085ZM 21.9998 136L 10 136L 10 144C 10 146.2091 11.7907 148 13.9998 148L 21.9998 148L 21.9998 136ZM 93.9998 148L 345.9998 148L 357.9998 136C 357.9998 136 348.209 136 345.9998 136L 93.9998 136L 93.9998 148ZM 345.9998 148L 345.9998 136L 357.9998 136L 345.9998 148ZM 345.9998 148L 357.9998 136L 345.9998 136L 345.9998 148Z"></path></g></g></g><g id="g-root-cp_3_common_2-3_ddlhn5yrmvws-stroke" data-item-order="-771570" transform="translate(405, 620)"><g id="cp_3_common_2-3_ddlhn5yrmvws-stroke" fill="none" stroke-linecap="round" stroke-linejoin="round" stroke-miterlimit="4" stroke="#2c2c2c" stroke-width="2" stroke-opacity="1"><g><path d="M 22 10L 14 10C 11.7909 10 10 11.7909 10 14M 358 14C 358 11.7909 356.2091 10 354 10L 94 10M 358 14L 358 136M 10 136L 10 14M 346 148L 358 136L 346 136L 346 148ZM 21 148L 14 148C 11.7909 148 10 146.2091 10 144L 10 136M 346 148L 94 148"></path></g></g></g><g id="g-root-cp_2_g-2_lines_2-3_8yegltyrmtj9-fill" data-item-order="-771556" transform="translate(417, 608)"><g id="cp_2_g-2_lines_2-3_8yegltyrmtj9-fill-merged" stroke="none" fill="#426397" fill-opacity="1"><g><path d="M82 168C82 170.209 80.209 172 78 172 H14C11.791 172 10 170.209 10 168 V20C10 14.477 14.477 10 20 10 H96C101.523 10 106 14.477 106 20 V21 H82 V168"></path></g></g></g><g id="g-root-cp_2_g-2_lines_2-3_8yegltyrmtj9-stroke" data-item-order="-771556" transform="translate(417, 608)"><g id="cp_2_g-2_lines_2-3_8yegltyrmtj9-stroke" fill="none" stroke-linecap="round" stroke-linejoin="round" stroke-miterlimit="4" stroke="#2c2c2c" stroke-width="2" stroke-opacity="1"><g><path d="M 92 10L 20 10C 14.4772 10 10 14.4772 10 20L 10 22M 92 10C 86.4772 10 82 14.4772 82 20L 82 22M 92 10L 96 10C 101.5229 10 106 14.4772 106 20L 106 21M 82 168.00769L 82 22.007703M 10 22.00786L 10 168.00769M 82 168C 82 170.2091 80.2091 172 78 172L 14 172C 11.7909 172 10 170.2091 10 168"></path></g></g></g><g id="g-root-cp_4_common_2-4_1uo207lyrmux2-fill" data-item-order="-771530" transform="translate(405, 806)"><g id="cp_4_common_2-4_1uo207lyrmux2-fill-merged" stroke="none" fill="#6b6b6b" fill-opacity="1"><g><path d="M 22 10L 14 10C 11.7909 10 10 11.7909 10 14L 22 14L 22 10ZM 94 14L 358 14C 358 11.7909 356.2092 10 354 10L 94 10L 94 14ZM 22 13.998097L 22 14.004068L 10 13.998097L 10 153.998108L 22 153.998108L 22 13.998097ZM 94 153.998108L 358 153.998108L 358 13.998097L 94 13.998097L 94 153.998108ZM 21.9998 154L 10 154L 10 162C 10 164.2091 11.7907 166 13.9998 166L 21.9998 166L 21.9998 154ZM 93.9998 166L 345.9998 166L 357.9998 154C 357.9998 154 348.209 154 345.9998 154L 93.9998 154L 93.9998 166ZM 345.9998 166L 345.9998 154L 357.9998 154L 345.9998 166ZM 345.9998 166L 357.9998 154L 345.9998 154L 345.9998 166Z"></path></g></g></g><g id="g-root-cp_4_common_2-4_1uo207lyrmux2-stroke" data-item-order="-771530" transform="translate(405, 806)"><g id="cp_4_common_2-4_1uo207lyrmux2-stroke" fill="none" stroke-linecap="round" stroke-linejoin="round" stroke-miterlimit="4" stroke="#2c2c2c" stroke-width="2" stroke-opacity="1"><g><path d="M 22 10L 14 10C 11.7909 10 10 11.7909 10 14M 358 14C 358 11.7909 356.2091 10 354 10L 94 10M 358 14L 358 154M 10 154L 10 14M 346 166L 358 154L 346 154L 346 166ZM 21 166L 14 166C 11.7909 166 10 164.2091 10 162L 10 154M 346 166L 94 166"></path></g></g></g><g id="g-root-cp_2_g-2_lines_2-4_1hd7yxdyrmtc7-fill" data-item-order="-771516" transform="translate(417, 794)"><g id="cp_2_g-2_lines_2-4_1hd7yxdyrmtc7-fill-merged" stroke="none" fill="#426397" fill-opacity="1"><g><path d="M82 186C82 188.209 80.209 190 78 190 H14C11.791 190 10 188.209 10 186 V20C10 14.477 14.477 10 20 10 H96C101.523 10 106 14.477 106 20 V21 H82 V186"></path></g></g></g><g id="g-root-cp_2_g-2_lines_2-4_1hd7yxdyrmtc7-stroke" data-item-order="-771516" transform="translate(417, 794)"><g id="cp_2_g-2_lines_2-4_1hd7yxdyrmtc7-stroke" fill="none" stroke-linecap="round" stroke-linejoin="round" stroke-miterlimit="4" stroke="#2c2c2c" stroke-width="2" stroke-opacity="1"><g><path d="M 92 10L 20 10C 14.4772 10 10 14.4772 10 20L 10 22M 92 10C 86.4772 10 82 14.4772 82 20L 82 22M 92 10L 96 10C 101.5229 10 106 14.4772 106 20L 106 21M 82 186.00766L 82 22.007668M 10 22.007845L 10 186.00766M 82 186C 82 188.2091 80.2091 190 78 190L 14 190C 11.7909 190 10 188.2091 10 186"></path></g></g></g><g id="g-root-tx_keepsthe_1hegx3lyrmvib-fill" data-item-order="0" transform="translate(111, 320)"><g id="tx_keepsthe_1hegx3lyrmvib-fill-merged" stroke="none" fill="#f4f4f4" fill-opacity="1"><g><text style="font: 15px &quot;Shantell Sans&quot;, cursive; white-space: pre;" transform="translate(10, 28)" font-size="15px" font-family="'Shantell Sans', cursive"><tspan x="2" y="1" dominant-baseline="ideographic">Keeps the agent focused on the </tspan><tspan x="2" y="19" dominant-baseline="ideographic">immediate task at hand.</tspan></text></g></g></g><g id="g-root-tx_keepsthe_1hegx3lyrmvib-stroke" data-item-order="0" transform="translate(111, 320)"></g><g id="g-root-ic_sync_90wg41yr37k0-fill" data-item-order="0" transform="translate(39, 473)"></g><g id="g-root-ic_sync_90wg41yr37k0-stroke" data-item-order="0" transform="translate(39, 473)"><g id="ic_sync_90wg41yr37k0-stroke" fill="none" stroke-linecap="round" stroke-linejoin="round" stroke-miterlimit="4" stroke="#1ac3fb" stroke-width="2" stroke-opacity="1"><g><path d="M 52.66 30.959999C 52.883839 29.989182 52.997887 28.996286 53 28C 53 18.619999 43.599998 11 32 11C 20.4 11 11 18.619999 11 28C 11.06974 32.70462 13.278146 37.121433 17 40L 13 49.080002L 24.279999 43.880001C 25.815956 44.370251 27.3972 44.705261 29 44.880001M 48.18 40.279999L 54.259998 43L 57 36.860001M 32.639999 40.52C 34.336945 35.570831 39.24939 32.469467 44.447311 33.065716C 49.645233 33.661964 53.72781 37.795128 54.260002 43M 38.760002 49.720001L 32.68 47L 29.940001 53.139999M 54.299999 49.459999C 52.605865 54.408039 47.697712 57.511337 42.501217 56.920063C 37.304718 56.328785 33.219208 52.202156 32.68 47"></path></g></g></g><g id="g-root-tx_prevents_1heh09dyr356u-fill" data-item-order="0" transform="translate(111, 428)"><g id="tx_prevents_1heh09dyr356u-fill-merged" stroke="none" fill="#f4f4f4" fill-opacity="1"><g><text style="font: bold 20px &quot;Shantell Sans&quot;, cursive; white-space: pre;" transform="translate(10, 46)" font-weight="bold" font-size="20px" font-family="'Shantell Sans', cursive"><tspan x="2" y="-11" dominant-baseline="ideographic">Prevents repetitive </tspan><tspan x="2" y="13" dominant-baseline="ideographic">questions within a </tspan><tspan x="2" y="37" dominant-baseline="ideographic">single session.</tspan></text></g></g></g><g id="g-root-tx_prevents_1heh09dyr356u-stroke" data-item-order="0" transform="translate(111, 428)"></g><g id="g-root-ic_2_4nkuc1yrczy9-fill" data-item-order="0" transform="translate(429, 467)"></g><g id="g-root-ic_2_4nkuc1yrczy9-stroke" data-item-order="0" transform="translate(429, 467)"><g id="ic_2_4nkuc1yrczy9-stroke" fill="none" stroke-linecap="round" stroke-linejoin="round" stroke-miterlimit="4" stroke="#4f91fc" stroke-width="2" stroke-opacity="1"><g><path d="M 33.999397 33.839001C 36.7486 33.839001 38.977402 31.610201 38.977402 28.860901C 38.977402 26.11158 36.7486 23.88282 33.999397 23.88282C 31.25 23.88282 29.02124 26.11158 29.02124 28.860901C 29.02124 31.610201 31.25 33.839001 33.999397 33.839001ZM 42.3428 41.580002C 41.2528 38.009003 37.877197 35.3316 33.999599 35.3316C 30.122 35.3316 26.746441 38.009003 25.6565 41.580002M 50.802399 19.791859C 46.766201 15.02342 40.736603 11.996094 34 11.996094C 21.84758 11.996094 11.996094 21.84758 11.996094 34C 11.996094 36.552399 12.43064 39.003201 13.2298 41.2826M 17.243721 48.262402C 21.27972 52.999599 27.289 56.004002 34 56.004002C 46.152401 56.004002 56.004002 46.152401 56.004002 34C 56.004002 31.3298 55.528198 28.77062 54.6572 26.402679M 44.476601 20.4375L 51.370998 20.4375L 51.370998 13.543159M 23.523441 47.562401L 16.62908 47.562401L 16.62908 54.456799"></path></g></g></g><g id="g-root-tx_avoidsst_1d0ixe9yrd0qv-fill" data-item-order="0" transform="translate(501, 422)"><g id="tx_avoidsst_1d0ixe9yrd0qv-fill-merged" stroke="none" fill="#f4f4f4" fill-opacity="1"><g><text style="font: bold 20px &quot;Shantell Sans&quot;, cursive; white-space: pre;" transform="translate(10, 46)" font-weight="bold" font-size="20px" font-family="'Shantell Sans', cursive"><tspan x="2" y="-11" dominant-baseline="ideographic">Avoids starting from </tspan><tspan x="2" y="13" dominant-baseline="ideographic">scratch with </tspan><tspan x="2" y="37" dominant-baseline="ideographic">returning users.</tspan></text></g></g></g><g id="g-root-tx_avoidsst_1d0ixe9yrd0qv-stroke" data-item-order="0" transform="translate(501, 422)"></g><g id="g-root-tx_ensurest_v7dhn5yr37kf-fill" data-item-order="0" transform="translate(111, 512)"><g id="tx_ensurest_v7dhn5yr37kf-fill-merged" stroke="none" fill="#f4f4f4" fill-opacity="1"><g><text style="font: 15px &quot;Shantell Sans&quot;, cursive; white-space: pre;" transform="translate(10, 37)" font-size="15px" font-family="'Shantell Sans', cursive"><tspan x="2" y="-8" dominant-baseline="ideographic">Ensures the agent doesn't ask </tspan><tspan x="2" y="10" dominant-baseline="ideographic">the same clarifying questions </tspan><tspan x="2" y="28" dominant-baseline="ideographic">multiple times during one task.</tspan></text></g></g></g><g id="g-root-tx_ensurest_v7dhn5yr37kf-stroke" data-item-order="0" transform="translate(111, 512)"></g><g id="g-root-tx_theagent_v9vdzlyrczy8-fill" data-item-order="0" transform="translate(501, 506)"><g id="tx_theagent_v9vdzlyrczy8-fill-merged" stroke="none" fill="#f4f4f4" fill-opacity="1"><g><text style="font: 15px &quot;Shantell Sans&quot;, cursive; white-space: pre;" transform="translate(10, 37)" font-size="15px" font-family="'Shantell Sans', cursive"><tspan x="2" y="-8" dominant-baseline="ideographic">The agent remembers user </tspan><tspan x="2" y="10" dominant-baseline="ideographic">preferences and codebase </tspan><tspan x="2" y="28" dominant-baseline="ideographic">details from previous sessions.</tspan></text></g></g></g><g id="g-root-tx_theagent_v9vdzlyrczy8-stroke" data-item-order="0" transform="translate(501, 506)"></g><g id="g-root-tx_allowsth_hx5xg1yrblz9-fill" data-item-order="0" transform="translate(501, 296)"><g id="tx_allowsth_hx5xg1yrblz9-fill-merged" stroke="none" fill="#f4f4f4" fill-opacity="1"><g><text style="font: 15px &quot;Shantell Sans&quot;, cursive; white-space: pre;" transform="translate(10, 37)" font-size="15px" font-family="'Shantell Sans', cursive"><tspan x="2" y="-8" dominant-baseline="ideographic">Allows the agent to remember </tspan><tspan x="2" y="10" dominant-baseline="ideographic">previous interactions and user </tspan><tspan x="2" y="28" dominant-baseline="ideographic">context.</tspan></text></g></g></g><g id="g-root-tx_allowsth_hx5xg1yrblz9-stroke" data-item-order="0" transform="translate(501, 296)"></g><g id="g-root-tx_enablesc_zntgupyrbmrw-fill" data-item-order="0" transform="translate(501, 236)"><g id="tx_enablesc_zntgupyrbmrw-fill-merged" stroke="none" fill="#f4f4f4" fill-opacity="1"><g><text style="font: bold 20px &quot;Shantell Sans&quot;, cursive; white-space: pre;" transform="translate(10, 34)" font-weight="bold" font-size="20px" font-family="'Shantell Sans', cursive"><tspan x="2" y="1" dominant-baseline="ideographic">Enables continuity </tspan><tspan x="2" y="25" dominant-baseline="ideographic">across user sessions.</tspan></text></g></g></g><g id="g-root-tx_enablesc_zntgupyrbmrw-stroke" data-item-order="0" transform="translate(501, 236)"></g><g id="g-root-ic_rota_1qbzfrlyrbls6-fill" data-item-order="0" transform="translate(429, 269)"></g><g id="g-root-ic_rota_1qbzfrlyrbls6-stroke" data-item-order="0" transform="translate(429, 269)"><g id="ic_rota_1qbzfrlyrbls6-stroke" fill="none" stroke-linecap="round" stroke-linejoin="round" stroke-miterlimit="4" stroke="#4f91fc" stroke-width="2" stroke-opacity="1"><g><path d="M 21.83906 21.69166C 26.048639 26.1017 32.062401 28.9081 38.677399 28.9081C 41.8848 28.9081 45.091999 28.306721 47.898399 27.103979M 14.79998 56.5C 19.399979 50.900002 26.19998 47.5 34 47.5C 41.799999 47.5 48.599998 51.099998 53.200001 56.5M 42.599998 17.699961C 45.799999 20.299961 48 24.299961 48 28.699961C 48 36.5 41.799999 42.700001 34 42.700001C 26.19994 42.700001 19.999939 36.5 19.999939 28.699961C 19.999939 20.89996 26.19994 14.699961 34 14.699961M 28.999941 11.5L 34 14.7L 30.6 20.1"></path></g></g></g><g id="g-root-tx_maintain_4mvm9yrmtca-fill" data-item-order="0" transform="translate(111, 236)"><g id="tx_maintain_4mvm9yrmtca-fill-merged" stroke="none" fill="#f4f4f4" fill-opacity="1"><g><text style="font: bold 20px &quot;Shantell Sans&quot;, cursive; white-space: pre;" transform="translate(10, 46)" font-weight="bold" font-size="20px" font-family="'Shantell Sans', cursive"><tspan x="2" y="-11" dominant-baseline="ideographic">Maintains task </tspan><tspan x="2" y="13" dominant-baseline="ideographic">coherence and </tspan><tspan x="2" y="37" dominant-baseline="ideographic">current progress.</tspan></text></g></g></g><g id="g-root-tx_maintain_4mvm9yrmtca-stroke" data-item-order="0" transform="translate(111, 236)"></g><g id="g-root-tx_typicall_1hhldoxyrefii-fill" data-item-order="0" transform="translate(501, 632)"><g id="tx_typicall_1hhldoxyrefii-fill-merged" stroke="none" fill="#f4f4f4" fill-opacity="1"><g><text style="font: bold 20px &quot;Shantell Sans&quot;, cursive; white-space: pre;" transform="translate(10, 34)" font-weight="bold" font-size="20px" font-family="'Shantell Sans', cursive"><tspan x="2" y="1" dominant-baseline="ideographic">Typically involves a </tspan><tspan x="2" y="25" dominant-baseline="ideographic">vector database.</tspan></text></g></g></g><g id="g-root-tx_typicall_1hhldoxyrefii-stroke" data-item-order="0" transform="translate(501, 632)"></g><g id="g-root-ic_can_vcdac1yr7dhj-fill" data-item-order="0" transform="translate(39, 674)"></g><g id="g-root-ic_can_vcdac1yr7dhj-stroke" data-item-order="0" transform="translate(39, 674)"><g id="ic_can_vcdac1yr7dhj-stroke" fill="none" stroke-linecap="round" stroke-linejoin="round" stroke-miterlimit="4" stroke="#1ac3fb" stroke-width="2" stroke-opacity="1"><g><path d="M 15 18C 15 21.865993 23.50659 25 34 25C 44.493412 25 53 21.865993 53 18C 53 14.134007 44.493412 11 34 11C 23.50659 11 15 14.134007 15 18ZM 53 18L 53 50C 53 53.866001 46.702 57 34 57C 21.298 57 15 53.866001 15 50L 15 18M 25 47.037998C 30.931307 48.321983 37.068691 48.321983 43 47.037998L 43 36C 37.068802 37.284977 30.931202 37.284977 25 36Z"></path></g></g></g><g id="g-root-tx_oftenimp_v7dhn5yr7e2t-fill" data-item-order="0" transform="translate(111, 638)"><g id="tx_oftenimp_v7dhn5yr7e2t-fill-merged" stroke="none" fill="#f4f4f4" fill-opacity="1"><g><text style="font: bold 20px &quot;Shantell Sans&quot;, cursive; white-space: pre;" transform="translate(10, 46)" font-weight="bold" font-size="20px" font-family="'Shantell Sans', cursive"><tspan x="2" y="-11" dominant-baseline="ideographic">Often implemented as </tspan><tspan x="2" y="13" dominant-baseline="ideographic">a simple in-memory </tspan><tspan x="2" y="37" dominant-baseline="ideographic">store.</tspan></text></g></g></g><g id="g-root-tx_oftenimp_v7dhn5yr7e2t-stroke" data-item-order="0" transform="translate(111, 638)"></g><g id="g-root-ic_up_94nampyreepw-fill" data-item-order="0" transform="translate(429, 665)"></g><g id="g-root-ic_up_94nampyreepw-stroke" data-item-order="0" transform="translate(429, 665)"><g id="ic_up_94nampyreepw-stroke" fill="none" stroke-linecap="round" stroke-linejoin="round" stroke-miterlimit="4" stroke="#4f91fc" stroke-width="2" stroke-opacity="1"><g><path d="M 11.5 56.5C 14.48672 56.5 17.473461 56.5 20.46018 53.5C 23.446899 56.5 26.43362 56.5 27.23008 56.5C 28.026541 56.5 31.013201 56.5 34 53.5C 36.986801 56.5 39.9734 56.5 40.77 56.5C 41.566399 56.5 44.553001 56.5 47.539799 53.5C 50.5266 56.5 53.513199 56.5 56.5 56.5M 50.299999 18.79162C 53.9716 18.79162 56.9482 17.15934 56.9482 15.145821C 56.9482 13.13228 53.9716 11.5 50.299999 11.5C 46.628201 11.5 43.651798 13.13228 43.651798 15.145821C 43.651798 17.15934 46.628201 18.79162 50.299999 18.79162ZM 43.651798 15.1457L 43.651798 25.010841C 43.651798 26.940981 46.654202 28.65666 50.299999 28.65666C 53.945801 28.65666 56.9482 26.940981 56.9482 25.010841L 56.9482 15.1457M 14.59252 48.799801C 14.59252 48.137199 14.37164 47.474602 13.70896 46.811798L 12.38358 45.486401C 11.500006 44.823799 11.279104 43.498402 11.720892 42.614799C 12.16268 41.510399 13.04626 41.0686 14.15074 41.0686L 15.9179 41.0686C 16.58058 41.0686 17.46414 40.847801 17.905941 40.405998C 18.347721 39.964199 18.568619 39.312401 18.568619 38.417801L 18.568619 36.650803C 18.568619 35.5462 19.2313 34.441799 20.11488 34.220802C 21.219341 33.779198 22.32382 34 22.9865 34.883598L 24.31188 36.209C 24.75366 36.650803 25.41634 37.092598 26.299919 37.092598C 27.183479 37.092598 27.625259 36.871597 28.287939 36.209L 29.613319 34.883598C 30.275999 34 31.6014 33.779198 32.485001 34.220802C 33.589401 34.662598 34.0312 35.5462 34.0312 36.650803L 34.0312 38.417801C 34.0312 39.080601 34.252197 39.964199 34.693802 40.405998C 35.135597 40.847801 36.019199 41.2896 36.681999 41.0686L 38.448997 41.0686C 39.5536 41.0686 40.658001 41.731201 40.878998 42.614799C 41.320801 43.719398 41.0998 44.823799 40.216202 45.486401L 38.8908 46.811798C 38.448997 47.253601 38.007202 47.916401 38.007202 48.799801M 21.44018 48.799801C 21.44018 46.148998 23.649139 43.7192 26.52076 43.7192C 29.17148 43.7192 31.3804 45.928001 31.3804 48.799801M 50.299999 33.399799L 50.299999 47.999802M 10 10M 46.299999 37.400002L 50.299999 33.400002L 54.299999 37.400002M 56.9482 20.039661C 56.9482 22.095821 53.971802 23.76268 50.299999 23.76268C 46.628201 23.76268 43.651798 22.095821 43.651798 20.039661"></path></g></g></g><g id="g-root-tx_storesem_zqxua9yreepv-fill" data-item-order="0" transform="translate(501, 692)"><g id="tx_storesem_zqxua9yreepv-fill-merged" stroke="none" fill="#f4f4f4" fill-opacity="1"><g><text style="font: 15px &quot;Shantell Sans&quot;, cursive; white-space: pre;" transform="translate(10, 37)" font-size="15px" font-family="'Shantell Sans', cursive"><tspan x="2" y="-8" dominant-baseline="ideographic">Stores embeddings of past </tspan><tspan x="2" y="10" dominant-baseline="ideographic">conversations for efficient </tspan><tspan x="2" y="28" dominant-baseline="ideographic">retrieval.</tspan></text></g></g></g><g id="g-root-tx_storesem_zqxua9yreepv-stroke" data-item-order="0" transform="translate(501, 692)"></g><g id="g-root-tx_usesdata_1lyntzlyr7dhi-fill" data-item-order="0" transform="translate(111, 722)"><g id="tx_usesdata_1lyntzlyr7dhi-fill-merged" stroke="none" fill="#f4f4f4" fill-opacity="1"><g><text style="font: 15px &quot;Shantell Sans&quot;, cursive; white-space: pre;" transform="translate(10, 28)" font-size="15px" font-family="'Shantell Sans', cursive"><tspan x="2" y="1" dominant-baseline="ideographic">Uses data structures like arrays </tspan><tspan x="2" y="19" dominant-baseline="ideographic">to hold recent information.</tspan></text></g></g></g><g id="g-root-tx_usesdata_1lyntzlyr7dhi-stroke" data-item-order="0" transform="translate(111, 722)"></g><g id="g-root-tx_theagent_4g35apyrh8um-fill" data-item-order="0" transform="translate(501, 878)"><g id="tx_theagent_4g35apyrh8um-fill-merged" stroke="none" fill="#f4f4f4" fill-opacity="1"><g><text style="font: 15px &quot;Shantell Sans&quot;, cursive; white-space: pre;" transform="translate(10, 46)" font-size="15px" font-family="'Shantell Sans', cursive"><tspan x="2" y="-17" dominant-baseline="ideographic">The agent needs to retrieve </tspan><tspan x="2" y="1" dominant-baseline="ideographic">relevant history without </tspan><tspan x="2" y="19" dominant-baseline="ideographic">overwhelming the context </tspan><tspan x="2" y="37" dominant-baseline="ideographic">window.</tspan></text></g></g></g><g id="g-root-tx_theagent_4g35apyrh8um-stroke" data-item-order="0" transform="translate(501, 878)"></g><g id="g-root-tx_longterm_1luaidtyrbnk3-fill" data-item-order="0" transform="translate(469.8125, 137)"><g id="tx_longterm_1luaidtyrbnk3-fill-merged" stroke="none" fill="#4f91fc" fill-opacity="1"><g><text style="font: 25px &quot;Shantell Sans&quot;, cursive; white-space: pre;" transform="translate(128.1875, 25)" font-size="25px" font-family="'Shantell Sans', cursive"><tspan x="-116.19" y="17" dominant-baseline="ideographic">Long-Term Memory</tspan></text></g></g></g><g id="g-root-tx_longterm_1luaidtyrbnk3-stroke" data-item-order="0" transform="translate(469.8125, 137)"></g><g id="g-root-tx_shortter_mb3x5dyrmu4h-fill" data-item-order="0" transform="translate(76.96875, 137)"><g id="tx_shortter_mb3x5dyrmu4h-fill-merged" stroke="none" fill="#1ac3fb" fill-opacity="1"><g><text style="font: 25px &quot;Shantell Sans&quot;, cursive; white-space: pre;" transform="translate(131.03125, 25)" font-size="25px" font-family="'Shantell Sans', cursive"><tspan x="-119.03" y="17" dominant-baseline="ideographic">Short-Term Memory</tspan></text></g></g></g><g id="g-root-tx_shortter_mb3x5dyrmu4h-stroke" data-item-order="0" transform="translate(76.96875, 137)"></g><g id="g-root-tx_whichtyp_1cxegsxyrmu4g-fill" data-item-order="0" transform="translate(17.4921875, 38)"><g id="tx_whichtyp_1cxegsxyrmu4g-fill-merged" stroke="none" fill="#f4f4f4" fill-opacity="1"><g><text style="font: bold 25px &quot;Shantell Sans&quot;, cursive; white-space: pre;" transform="translate(385.5078125, 25)" font-weight="bold" font-size="25px" font-family="'Shantell Sans', cursive"><tspan x="-373.51" y="17" dominant-baseline="ideographic">Which type of memory is more crucial for coding agents?</tspan></text></g></g></g><g id="g-root-tx_whichtyp_1cxegsxyrmu4g-stroke" data-item-order="0" transform="translate(17.4921875, 38)"></g><g id="g-root-ic_modu_18i7ixdyra6fe-fill" data-item-order="0" transform="translate(39, 854)"></g><g id="g-root-ic_modu_18i7ixdyra6fe-stroke" data-item-order="0" transform="translate(39, 854)"><g id="ic_modu_18i7ixdyra6fe-stroke" fill="none" stroke-linecap="round" stroke-linejoin="round" stroke-miterlimit="4" stroke="#1ac3fb" stroke-width="2" stroke-opacity="1"><g><path d="M 31 51L 13 51C 11.895431 51 11 50.104568 11 49L 11 17C 11 15.895431 11.895431 15 13 15L 41 15C 42.104568 15 43 15.895431 43 17L 43 31M 19 19L 19 11M 27 19L 27 11M 35 19L 35 11M 50 49L 56 49C 56 49 57 49 57 50L 57 56C 57 56 57 57 56 57L 50 57C 50 57 49 57 49 56L 49 50C 49 50 49 49 50 49M 38 49L 44 49C 44 49 45 49 45 50L 45 56C 45 56 45 57 44 57L 38 57C 38 57 37 57 37 56L 37 50C 37 50 37 49 38 49M 44 37L 50 37C 50 37 51 37 51 38L 51 44C 51 44 51 45 50 45L 44 45C 44 45 43 45 43 44L 43 38C 43 38 43 37 44 37"></path></g></g></g><g id="g-root-tx_keepingt_de81w1yra87c-fill" data-item-order="0" transform="translate(111, 830)"><g id="tx_keepingt_de81w1yra87c-fill-merged" stroke="none" fill="#f4f4f4" fill-opacity="1"><g><text style="font: bold 20px &quot;Shantell Sans&quot;, cursive; white-space: pre;" transform="translate(10, 34)" font-weight="bold" font-size="20px" font-family="'Shantell Sans', cursive"><tspan x="2" y="1" dominant-baseline="ideographic">Keeping the thread of </tspan><tspan x="2" y="25" dominant-baseline="ideographic">what you're building.</tspan></text></g></g></g><g id="g-root-tx_keepingt_de81w1yra87c-stroke" data-item-order="0" transform="translate(111, 830)"></g><g id="g-root-tx_notstart_vcdac1yrfua5-fill" data-item-order="0" transform="translate(501, 818)"><g id="tx_notstart_vcdac1yrfua5-fill-merged" stroke="none" fill="#f4f4f4" fill-opacity="1"><g><text style="font: bold 20px &quot;Shantell Sans&quot;, cursive; white-space: pre;" transform="translate(10, 34)" font-weight="bold" font-size="20px" font-family="'Shantell Sans', cursive"><tspan x="2" y="1" dominant-baseline="ideographic">Not starting from </tspan><tspan x="2" y="25" dominant-baseline="ideographic">zero every time.</tspan></text></g></g></g><g id="g-root-tx_notstart_vcdac1yrfua5-stroke" data-item-order="0" transform="translate(501, 818)"></g><g id="g-root-ic_side_1cuwnm9yrh8nj-fill" data-item-order="0" transform="translate(429, 860)"></g><g id="g-root-ic_side_1cuwnm9yrh8nj-stroke" data-item-order="0" transform="translate(429, 860)"><g id="ic_side_1cuwnm9yrh8nj-stroke" fill="none" stroke-linecap="round" stroke-linejoin="round" stroke-miterlimit="4" stroke="#4f91fc" stroke-width="2" stroke-opacity="1"><g><path d="M 17.248039 21.900021C 18.9049 21.900021 20.248039 20.556881 20.248039 18.900021C 20.248039 17.243179 18.9049 15.900021 17.248039 15.900021C 15.5912 15.900021 14.24804 17.243179 14.24804 18.900021C 14.24804 20.556881 15.5912 21.900021 17.248039 21.900021ZM 10 10M 20.248039 18.900021L 30.996 18.900021M 14.5 36.900002C 16.15686 36.900002 17.5 35.556801 17.5 33.900002C 17.5 32.243202 16.15686 30.9 14.5 30.9C 12.84314 30.9 11.5 32.243202 11.5 33.900002C 11.5 35.556801 12.84314 36.900002 14.5 36.900002ZM 10 10M 17.5 33.900002L 30.996 33.900002M 17.248039 51.900002C 18.9049 51.900002 20.248039 50.556801 20.248039 48.900002C 20.248039 47.243198 18.9049 45.900002 17.248039 45.900002C 15.5912 45.900002 14.24804 47.243198 14.24804 48.900002C 14.24804 50.556801 15.5912 51.900002 17.248039 51.900002ZM 10 10M 20.25 48.900002L 30.996 48.900002M 21.248039 41.900002L 25.248039 41.900002L 25.248039 48.888802M 24.12208 26.900021L 30.996 26.900021M 30.996 11.900024C 47.195999 11.900024 50.596001 25.100021 56.396 40.099998C 56.796001 41.299999 55.995998 42.5 54.796001 42.5L 50.596001 42.5L 50.596001 49.299999C 50.596001 53.099998 47.596001 56.099998 43.796001 56.099998L 30.996 56.099998L 30.996 11.900024ZM 44.593601 44.900002C 45.593601 46.900002 48.593601 46.900002 50.593601 46.900002M 43.596001 32.299801C 43.375198 32.299801 43.195999 32.1208 43.195999 31.899799C 43.195999 31.679001 43.375198 31.4998 43.596001 31.4998M 43.596001 32.299801C 43.816799 32.299801 43.995998 32.1208 43.995998 31.899799C 43.995998 31.679001 43.816799 31.4998 43.596001 31.4998"></path></g></g></g><g id="g-root-tx_theagent_1uookghyra77l-fill" data-item-order="0" transform="translate(111, 890)"><g id="tx_theagent_1uookghyra77l-fill-merged" stroke="none" fill="#f4f4f4" fill-opacity="1"><g><text style="font: 15px &quot;Shantell Sans&quot;, cursive; white-space: pre;" transform="translate(10, 28)" font-size="15px" font-family="'Shantell Sans', cursive"><tspan x="2" y="1" dominant-baseline="ideographic">The agent needs to track what </tspan><tspan x="2" y="19" dominant-baseline="ideographic">has been tried and what broke.</tspan></text></g></g></g><g id="g-root-tx_theagent_1uookghyra77l-stroke" data-item-order="0" transform="translate(111, 890)"></g><g id="g-root-ic_2_qs6dg1yrmvic-fill" data-item-order="0" transform="translate(39, 272)"></g><g id="g-root-ic_2_qs6dg1yrmvic-stroke" data-item-order="0" transform="translate(39, 272)"><g id="ic_2_qs6dg1yrmvic-stroke" fill="none" stroke-linecap="round" stroke-linejoin="round" stroke-miterlimit="4" stroke="#1ac3fb" stroke-width="2" stroke-opacity="1"><g><path d="M 25.56348 56.1236L 25.56348 45.555801M 43.274799 56.1236L 43.274799 51.063202L 45.805 51.063202C 47.147202 51.063202 48.4342 50.529999 49.383202 49.581001C 50.332199 48.632 50.865398 47.344799 50.865398 46.0028L 50.865398 40.942398L 54.0704 40.942398C 54.2756 40.942001 54.477798 40.8918 54.659401 40.795998C 54.841 40.700199 54.996601 40.561798 55.112801 40.392403C 55.229 40.223198 55.302399 40.028198 55.326401 39.8242C 55.350399 39.620201 55.3246 39.413601 55.250999 39.221802C 51.689201 29.981899 49.293201 21.58268 41.702 18.990181M 12.666019 38.595802L 12.666019 32.127998L 19.22216 32.127998L 19.22216 38.595802L 12.666019 38.595802ZM 10 10M 13.3955 14.18476L 15.75684 16.546501L 20.42688 11.876464M 10 10M 13.3955 24.310261L 15.75684 26.67202L 20.42688 22.00198M 26.84082 14.21148L 36.334 14.21148M 26.84082 24.89072L 36.334 24.89072M 26.84082 35.362L 36.334 35.362"></path></g></g></g></g></g><path id="w1iofmy787b7" d="M65.283 12.757a.35.35 0 0 0 .584.157l5.203-5.141-6.183 3.523.396 1.461zm-2.216-11.7a.35.35 0 0 0-.522.305v3.111l3.276-1.868-2.754-1.548zm3.728 2.105l-4.25 2.421v2.445l6.391-3.644-2.141-1.222zm4.708 3.303a.35.35 0 0 0 0-.609l-1.592-.9-7.365 4.199v1.782a.35.35 0 0 0 .523.305l8.435-4.777z M44.542 2.513c0-.433.355-.783.792-.783s.792.35.792.783-.355.783-.792.783-.792-.35-.792-.783zm59.171 0c0-.433.355-.783.792-.783s.792.35.792.783-.355.783-.792.783-.792-.35-.792-.783zm-85.951 7.636h-1.27v-.487c-.276.201-.864.609-1.881.609-1.202 0-2.274-.794-2.137-2.078.118-1.106 1.153-1.584 1.848-1.727l2.17-.345c0-.539-.29-.956-1.064-1.006s-1.21.305-1.571 1.017l-1.124-.605c1.218-2.631 5.029-1.764 5.029.414v4.207zm-1.27-2.86c.006.396-.062 1.112-.819 1.59-.587.37-1.841.299-1.903-.395-.049-.555.461-.791.906-.898l1.816-.297zm72.662 2.86h-1.27v-.487c-.276.201-.864.609-1.881.609-1.202 0-2.274-.794-2.137-2.078.118-1.106 1.153-1.584 1.848-1.727l2.17-.345c0-.539-.29-.956-1.064-1.006s-1.21.305-1.571 1.017l-1.124-.605c1.218-2.631 5.029-1.764 5.029.414v4.207zm-1.27-2.86c.006.396-.062 1.112-.82 1.59-.587.37-1.841.299-1.903-.395-.049-.555.461-.791.906-.898l1.816-.297zM99.096 10.149H97.85v-8.45h1.246v4.895l2.68-2.559h1.738l-2.633 2.535 2.715 3.578h-1.556l-2.077-2.707-.867.844v1.863zm6.053-6.114h-1.255v6.113h1.255V4.035zm-59.2 0h-1.255v6.113h1.255V4.035zm5.584 6.113V1.697h1.255v2.695c.361-.346 1-.485 1.47-.485 1.452 0 2.477 1.082 2.457 2.448v3.792h-1.27v-3.68c0-.408-.214-1.339-1.315-1.339-.968 0-1.342.756-1.342 1.339v3.681h-1.255zm-4.76-4.894V4.039h.621a.45.45 0 0 0 .45-.45v-.855h1.251v1.305h1.309v1.215h-1.309v3.109c0 .293.105.664.648.664.365 0 .531-.035.736-.07v1.137s-.361.113-.857.113c-1.398 0-1.777-1.051-1.777-1.788V5.254h-1.071zM36.528 4.039h-1.394l2.191 6.106h1.125l1.234-3.918 1.238 3.918h1.129l2.188-6.106h-1.383l-1.359 3.93-1.256-3.93h-1.124l-1.242 3.957-1.348-3.957zM26.212 7.141c-.02 1.566 1.187 3.129 3.223 3.129 1.566 0 2.383-.918 2.734-1.719L31.172 8c-.315.399-.801 1.094-1.738 1.094-1.145 0-1.825-.781-1.891-1.52h4.625c.074-.284.148-.995-.03-1.559-.336-1.064-1.221-2.102-2.839-2.102s-3.088 1.152-3.088 3.227zm1.363-.75h3.348c-.055-.43-.566-1.301-1.623-1.301a1.79 1.79 0 0 0-1.725 1.301zm-8.758.75c.038 1.758 1.277 3.133 3.145 3.133 1.074 0 1.723-.477 1.961-.672v.547h1.242V1.703h-1.258v2.888c-.414-.36-1.062-.68-1.93-.68-1.91 0-3.198 1.473-3.16 3.23zm1.309-.08c0 1.119.723 1.978 1.836 1.978a1.88 1.88 0 0 0 1.94-1.904c0-1.371-1.011-1.99-1.972-1.99s-1.805.798-1.805 1.916zm76.683-.028C96.771 5.275 95.532 3.9 93.664 3.9c-1.074 0-1.723.477-1.961.672v-.547h-1.242v8.22h1.258V9.583c.414.36 1.063.68 1.93.68 1.91 0 3.198-1.473 3.16-3.23zm-1.309.08c0-1.119-.723-1.978-1.836-1.978a1.88 1.88 0 0 0-1.94 1.904c0 1.371 1.011 1.99 1.972 1.99S95.5 8.231 95.5 7.113zM106.441 10.173V4.036h1.254v.382c.361-.346 1-.485 1.47-.485 1.452 0 2.477 1.082 2.457 2.448v3.792h-1.27V6.492c0-.408-.214-1.339-1.315-1.339-.969 0-1.342.756-1.342 1.339v3.681h-1.254zm-30.383-.021V1.824h1.084l4.215 5.777V1.824h1.32v8.328h-1.094l-4.207-5.796v5.796h-1.319zM5.24 10.149H4V2.377h1.014l2.664 3.597 2.654-3.592h1.03v7.766h-1.256V4.762L7.678 8.068 5.24 4.742v5.407z" transform="translate(20, 998)" fill="#acacac88" stroke="none"></path></svg>